<!DOCTYPE svg PUBLIC "-//W3C//DTD SVG 20010904//EN" "http://www.w3.org/TR/2001/REC-SVG-20010904/DTD/svg10.dtd">
<svg version="1.0" xmlns="http://www.w3.org/2000/svg" width="67px" height="1299px" viewBox="0 0 670 12990" preserveAspectRatio="xMidYMid meet">
    <g id="layer101" fill="#000000" stroke="none">
        <path d="M177 12699 c-80 -139 -144 -256 -141 -261 3 -4 61 -8 130 -8 l124 0 0 -5935 0 -5935 -124 0 c-69 0 -127 -4 -130 -8 -3 -5 60 -122 141 -261 120 -208 148 -250 159 -239 22 22 291 493 287 500 -2 5 -62 8 -134 8 l-129 0 0 5935 0 5935 129 0 c72 0 132 3 134 8 4 7 -265 478 -287 500 -11 11 -39 -30 -159 -239z"/>
    </g>

</svg>