<!DOCTYPE svg PUBLIC "-//W3C//DTD SVG 20010904//EN" "http://www.w3.org/TR/2001/REC-SVG-20010904/DTD/svg10.dtd">
<svg version="1.0" xmlns="http://www.w3.org/2000/svg" width="868px" height="852px" viewBox="0 0 8680 8520" preserveAspectRatio="xMidYMid meet">
<g id="layer101" fill="#ffffff" stroke="none">
 <path d="M5991 8453 c-12 -21 -25 -45 -31 -53 -5 -8 -241 -448 -525 -977 -285 -530 -520 -963 -525 -963 -7 0 -1014 1904 -1034 1956 -11 28 -26 32 -26 7 -1 -10 -47 -465 -103 -1012 -66 -637 -107 -996 -114 -998 -12 -4 -379 265 -376 276 1 4 -4 8 -10 8 -20 0 -806 587 -799 597 3 5 1 6 -5 3 -5 -3 -103 64 -217 149 -114 84 -213 154 -219 154 -8 0 -9 -3 -1 -8 5 -4 40 -79 76 -167 37 -88 231 -558 433 -1045 202 -487 370 -895 373 -907 2 -13 2 -23 -2 -23 -15 0 -2213 1125 -2223 1139 -7 8 -13 12 -13 8 0 -7 -341 160 -350 172 -3 3 -9 7 -15 8 -5 1 -19 5 -30 9 -14 6 -8 -7 22 -42 51 -61 129 -137 135 -133 10 8 1849 -1794 1840 -1803 -19 -19 -1165 -547 -1175 -541 -5 3 -8 2 -4 -3 3 -5 -82 -49 -188 -99 -107 -49 -193 -90 -192 -92 2 -1 365 -58 807 -128 890 -138 860 -133 860 -145 0 -13 -1490 -1365 -1501 -1362 -6 1 -8 -1 -5 -6 6 -10 -211 -208 -225 -204 -5 1 -8 -2 -7 -7 2 -5 -62 -69 -142 -142 -487 -445 -479 -437 -451 -434 14 1 33 5 41 9 37 14 235 56 247 52 7 -3 13 -2 13 3 0 12 197 54 211 45 7 -4 10 -3 6 2 -3 6 100 34 236 65 133 31 673 156 1200 279 527 122 960 220 963 217 3 -3 -134 -519 -306 -1148 -240 -882 -308 -1144 -299 -1153 9 -8 10 -8 6 0 -8 14 36 57 47 47 4 -5 6 -3 4 3 -4 14 953 1004 964 998 5 -3 7 -1 6 4 -4 12 573 612 587 612 10 -1 909 -1146 904 -1152 -2 -2 8 -14 21 -28 21 -21 27 -23 36 -10 7 8 10 20 7 27 -3 7 -1 13 4 13 5 0 9 8 9 18 1 19 441 1443 449 1451 3 2 22 -11 43 -30 20 -19 102 -95 182 -169 80 -73 172 -158 205 -190 170 -160 1715 -1590 1719 -1590 3 0 -18 51 -46 113 -28 61 -51 120 -52 130 0 9 -3 17 -6 17 -11 0 -40 71 -34 82 4 6 3 9 -2 6 -10 -6 -430 926 -428 948 1 8 -1 12 -5 10 -4 -3 -29 46 -56 107 -27 62 -63 144 -81 182 -89 193 -423 943 -426 956 -2 8 2 13 7 13 47 -5 1812 -511 1808 -518 -4 -5 -1 -6 6 -2 6 4 51 -4 101 -18 49 -14 94 -26 100 -26 6 0 -142 129 -328 288 -187 158 -337 290 -335 295 2 4 0 6 -5 5 -12 -4 -338 272 -335 284 2 4 -1 7 -6 5 -11 -2 -951 792 -951 804 0 11 -85 -9 800 185 415 90 763 163 773 160 9 -2 15 -1 13 3 -3 4 137 38 310 76 181 40 314 73 314 80 0 6 -8 11 -17 11 -10 0 -270 90 -578 199 -308 109 -722 256 -920 325 -267 95 -360 132 -360 144 0 19 1437 1935 1448 1929 4 -3 7 -1 6 4 -4 15 13 43 22 37 5 -3 8 -1 7 4 -4 14 211 302 225 302 6 0 8 3 4 6 -3 4 6 23 21 42 15 20 23 33 17 30 -54 -32 -550 -246 -558 -241 -7 3 -9 2 -4 -2 9 -11 -581 -278 -595 -269 -6 4 -9 3 -5 -2 6 -10 -977 -458 -1005 -458 -9 0 -15 -3 -13 -6 4 -6 -495 -233 -501 -227 -4 3 32 586 96 1582 12 176 29 444 39 595 10 151 17 277 15 278 -1 2 -12 -13 -23 -35z m-5605 -1805 l29 -33 -32 29 c-31 28 -38 36 -30 36 2 0 16 -15 33 -32z"/>
 </g>

</svg>