<!DOCTYPE svg PUBLIC "-//W3C//DTD SVG 20010904//EN" "http://www.w3.org/TR/2001/REC-SVG-20010904/DTD/svg10.dtd">
<svg version="1.0" xmlns="http://www.w3.org/2000/svg" width="687px" height="783px" viewBox="0 0 6870 7830" preserveAspectRatio="xMidYMid meet">
<g id="layer101" fill="#ffffff" stroke="none">
 <path d="M3305 7754 c-600 -333 -1097 -700 -1549 -1144 -359 -354 -579 -615 -838 -1000 -424 -628 -733 -1353 -852 -2002 -55 -297 -56 -323 -56 -1678 0 -687 2 -1250 5 -1250 2 0 771 -150 1709 -334 l1704 -334 1704 334 c936 184 1707 334 1711 334 4 0 6 586 4 1303 -4 1405 -2 1349 -58 1652 -117 635 -421 1359 -822 1960 -532 798 -1247 1469 -2112 1984 -159 95 -418 241 -427 241 -2 0 -57 -30 -123 -66z"/>
 </g>

</svg>