<!DOCTYPE svg PUBLIC "-//W3C//DTD SVG 20010904//EN" "http://www.w3.org/TR/2001/REC-SVG-20010904/DTD/svg10.dtd">
<svg version="1.0" xmlns="http://www.w3.org/2000/svg" width="279px" height="1210px" viewBox="0 0 2790 12100" preserveAspectRatio="xMidYMid meet">
<g id="layer101" fill="#010101" stroke="none">
 <path d="M67 12003 c-4 -3 -7 -292 -7 -640 l0 -634 32 -14 c18 -7 299 -105 625 -217 325 -111 589 -206 585 -209 -4 -4 -279 -98 -612 -209 -333 -112 -611 -208 -618 -213 -9 -8 -12 -140 -10 -626 l3 -616 1325 0 1325 0 0 470 0 470 -698 5 -698 5 678 243 c373 134 688 250 701 258 22 14 22 15 22 293 0 211 -3 281 -12 288 -11 8 -294 108 -1208 427 l-185 65 691 0 c572 1 694 3 703 15 8 9 10 130 9 427 l-3 414 -1321 3 c-726 1 -1324 -1 -1327 -5z"/>
 <path d="M955 8235 c-129 -24 -199 -46 -300 -95 -298 -144 -506 -412 -602 -775 l-36 -140 0 -305 0 -305 36 -140 c117 -441 403 -745 802 -852 99 -27 104 -27 486 -31 429 -4 493 2 663 59 200 67 388 206 513 379 107 148 163 271 215 474 29 114 31 134 36 361 5 271 -2 343 -53 530 -40 145 -83 241 -162 360 -179 270 -426 430 -743 481 -115 19 -753 18 -855 -1z m838 -975 c138 -20 226 -85 264 -193 25 -71 25 -223 0 -293 -37 -107 -127 -175 -254 -194 -87 -12 -747 -13 -833 0 -179 26 -274 144 -273 340 1 196 94 314 268 339 84 12 746 13 828 1z"/>
 <path d="M67 5493 c-4 -3 -7 -230 -7 -503 0 -386 3 -500 13 -507 10 -8 1038 -343 1427 -466 l95 -30 -765 -256 -765 -256 -3 -434 c-1 -239 1 -438 6 -443 8 -8 2614 984 2640 1004 18 15 18 901 0 915 -14 11 -2612 983 -2626 983 -5 0 -12 -3 -15 -7z"/>
 <path d="M71 2336 c-8 -10 -10 -314 -9 -1132 l3 -1119 345 0 345 0 3 653 2 652 190 0 190 0 2 -427 3 -428 215 0 215 0 3 428 2 427 190 0 190 0 0 -644 c0 -532 2 -646 14 -655 9 -8 117 -11 377 -9 l364 3 3 1119 c1 818 -1 1122 -9 1132 -17 21 -2621 21 -2638 0z"/>
 </g>

</svg>