<!DOCTYPE svg PUBLIC "-//W3C//DTD SVG 20010904//EN" "http://www.w3.org/TR/2001/REC-SVG-20010904/DTD/svg10.dtd">
<svg version="1.0" xmlns="http://www.w3.org/2000/svg" width="519px" height="1291px" viewBox="0 0 5190 12910" preserveAspectRatio="xMidYMid meet">
<g id="layer101" fill="#ffffff" stroke="none">
 <path d="M73 12883 c7 -35 182 -616 858 -2847 640 -2111 1029 -3406 1029 -3421 0 -22 -140 -25 -1044 -25 -490 0 -897 -4 -904 -9 -14 -9 12 -122 968 -4226 549 -2356 532 -2286 556 -2296 50 -18 3564 -73 3564 -55 0 8 -243 505 -1080 2206 -1046 2127 -1236 2517 -1228 2525 4 5 700 -7 1513 -25 582 -13 885 -13 885 0 0 12 -117 200 -1463 2362 -2940 4720 -3639 5838 -3650 5838 -5 0 -7 -12 -4 -27z"/>
 </g>

</svg>