<!DOCTYPE svg PUBLIC "-//W3C//DTD SVG 20010904//EN" "http://www.w3.org/TR/2001/REC-SVG-20010904/DTD/svg10.dtd">
<svg version="1.0" xmlns="http://www.w3.org/2000/svg" width="1357px" height="296px" viewBox="0 0 13570 2960" preserveAspectRatio="xMidYMid meet">
<g class="ranged" fill="#74b0dd" stroke="none">
 <path d="M10409 2739 c-395 -58 -742 -308 -924 -665 -47 -92 -94 -226 -115 -326 l-11 -58 -112 0 -112 1 -105 195 c-58 108 -109 198 -115 200 -5 2 -274 3 -597 2 l-587 -3 154 -295 154 -295 -96 -185 c-53 -102 -123 -236 -155 -297 l-60 -113 239 0 238 0 98 190 c54 104 102 192 108 195 5 4 9 -70 9 -190 l0 -195 251 2 251 3 107 195 107 195 114 0 114 0 8 -44 c13 -74 67 -224 113 -316 62 -121 124 -205 229 -311 176 -176 384 -287 636 -341 118 -25 362 -25 480 0 176 38 353 116 486 215 95 71 245 225 303 313 82 124 170 337 186 452 l7 47 221 -2 221 -3 74 -135 c41 -74 91 -165 111 -203 l37 -67 425 286 c233 157 430 292 437 299 11 10 -68 67 -419 304 -237 161 -437 290 -443 288 -6 -3 -56 -89 -111 -191 l-100 -186 -226 0 -227 0 -7 48 c-3 26 -22 94 -41 152 -146 439 -516 756 -973 834 -100 17 -286 19 -382 5z m436 -214 c196 -49 403 -174 527 -318 122 -142 189 -268 241 -457 30 -111 30 -381 -1 -493 -87 -316 -277 -553 -557 -692 -343 -170 -746 -141 -1066 76 -132 89 -266 245 -343 397 -29 58 -86 221 -86 246 0 15 13 16 95 14 l96 -3 23 -65 c97 -280 325 -490 607 -561 117 -30 291 -30 413 0 263 63 491 260 592 509 48 120 59 179 59 327 0 169 -16 237 -85 380 -86 175 -213 304 -385 390 -135 68 -223 88 -380 89 -164 0 -242 -18 -391 -90 -94 -44 -126 -67 -198 -135 -47 -45 -108 -114 -134 -154 -52 -77 -106 -195 -117 -257 l-7 -38 -98 0 -98 0 13 59 c74 316 306 593 605 722 213 92 451 111 675 54z m-75 -376 c211 -56 385 -226 457 -444 33 -102 38 -263 10 -365 -82 -300 -343 -500 -651 -500 -111 0 -185 18 -291 69 -97 48 -188 128 -249 220 -37 56 -86 150 -86 167 0 2 44 4 98 4 l98 0 23 -41 c39 -68 123 -144 207 -185 71 -36 85 -39 178 -42 73 -3 117 0 156 12 240 70 389 316 339 558 -30 144 -123 265 -252 328 -143 70 -284 73 -423 10 -78 -35 -188 -140 -218 -208 l-19 -42 -94 0 c-73 0 -93 3 -93 14 0 8 21 56 47 107 38 76 62 110 127 174 172 170 394 227 636 164z"/>
 <path d="M3895 1952 c-177 -53 -280 -166 -307 -337 -6 -39 -8 -134 -6 -216 4 -129 8 -151 31 -202 14 -31 38 -72 54 -92 33 -42 124 -107 185 -134 109 -46 276 -64 390 -40 142 30 282 124 336 226 11 20 7 24 -71 66 -45 25 -97 52 -115 61 l-33 17 -44 -40 c-57 -52 -104 -71 -177 -71 -72 0 -115 17 -151 59 -27 32 -27 33 -27 198 0 135 3 170 16 193 49 82 208 93 254 17 11 -18 20 -42 20 -54 0 -21 -4 -23 -60 -23 l-60 0 0 -70 0 -70 235 0 235 0 0 255 0 256 -72 -3 -72 -3 -20 -67 -19 -68 -58 54 c-83 77 -144 99 -289 103 -89 2 -129 -2 -175 -15z"/>
 <path d="M250 1445 l0 -505 303 0 c166 0 331 5 367 11 160 26 249 110 266 249 12 104 -27 184 -114 236 l-52 32 30 5 c35 7 108 70 123 107 5 14 13 81 17 150 5 96 11 136 28 173 l21 47 -165 0 c-91 0 -173 -4 -183 -10 -34 -18 -51 -83 -51 -196 0 -115 -13 -157 -52 -168 -13 -3 -58 -6 -100 -6 l-78 0 0 190 0 190 -180 0 -180 0 0 -505z m551 -64 c21 -17 24 -28 24 -85 0 -91 -11 -100 -125 -104 l-90 -4 0 106 0 106 84 0 c68 0 88 -4 107 -19z"/>
 <path d="M1272 1942 c1 -5 82 -233 178 -506 l175 -496 186 0 187 0 11 28 c25 63 341 964 341 973 0 5 -80 9 -190 9 -136 0 -190 -3 -190 -11 0 -7 -9 -43 -20 -80 l-21 -69 -144 0 -144 0 -24 78 -24 77 -162 3 c-92 1 -161 -1 -159 -6z m598 -369 c0 -12 -69 -265 -73 -269 -1 -2 -20 53 -41 123 -20 69 -40 132 -43 139 -4 11 11 14 76 14 45 0 81 -3 81 -7z"/>
 <path d="M2450 1445 l0 -505 154 0 153 0 174 231 174 231 3 -231 2 -231 165 0 165 0 0 505 0 505 -152 -1 -153 0 -175 -227 -175 -227 -3 228 -2 227 -165 0 -165 0 0 -505z"/>
 <path d="M4740 1445 l0 -505 430 0 430 0 0 130 0 130 -250 0 -251 0 3 78 3 77 163 3 162 2 0 80 0 80 -165 0 -165 0 0 75 0 75 250 0 250 0 0 140 0 140 -430 0 -430 0 0 -505z"/>
 <path d="M5770 1445 l0 -507 318 5 c260 3 328 7 377 21 149 44 239 127 282 261 19 60 27 266 14 370 -22 177 -104 273 -281 331 -47 15 -103 18 -382 22 l-328 4 0 -507z m574 237 c49 -28 58 -72 54 -257 -4 -220 -16 -235 -178 -235 l-90 0 0 253 c0 140 3 257 8 261 13 14 174 -3 206 -22z"/>
 </g>
</svg>