<!DOCTYPE svg PUBLIC "-//W3C//DTD SVG 20010904//EN" "http://www.w3.org/TR/2001/REC-SVG-20010904/DTD/svg10.dtd">
<svg version="1.0" xmlns="http://www.w3.org/2000/svg" width="1238px" height="295px" viewBox="0 0 12380 2950" preserveAspectRatio="xMidYMid meet">
<g id="layer101" fill="#e4756d" stroke="none">
 <path d="M7865 2619 c-249 -19 -510 -139 -690 -316 -357 -354 -445 -869 -225 -1318 326 -663 1197 -840 1755 -356 135 117 239 263 311 437 46 111 46 112 -18 107 -29 -3 -57 -5 -61 -6 -5 -2 -19 -28 -32 -60 -94 -233 -263 -415 -488 -527 -337 -167 -714 -140 -1032 73 -136 91 -287 275 -352 430 -63 151 -77 224 -78 407 0 143 3 176 23 245 58 200 140 343 272 474 216 216 509 321 814 291 241 -23 446 -120 620 -295 103 -103 173 -212 240 -377 15 -38 15 -38 75 -38 l59 0 -10 38 c-17 63 -104 238 -157 315 -102 147 -299 312 -455 381 -178 79 -371 111 -571 95z"/>
 <path d="M10735 2619 c-155 -14 -333 -70 -460 -146 -260 -157 -464 -425 -529 -696 l-7 -28 62 3 62 3 22 65 c87 258 287 479 538 595 269 124 591 121 864 -11 242 -116 433 -332 516 -582 48 -142 60 -231 54 -377 -10 -263 -105 -480 -292 -671 -487 -496 -1314 -363 -1627 261 -20 39 -44 96 -54 127 -19 63 -21 64 -97 51 -36 -5 -39 -8 -33 -34 11 -57 68 -190 116 -269 101 -168 227 -295 396 -397 259 -158 575 -200 880 -118 311 83 586 314 724 608 375 799 -253 1692 -1135 1616z"/>
 <path d="M7870 2010 c-19 -19 -20 -33 -20 -220 l0 -201 -247 4 c-137 3 -266 8 -287 12 -75 14 -136 -42 -136 -126 0 -88 86 -147 166 -114 29 12 83 15 270 15 l234 0 0 -214 c0 -193 2 -216 18 -237 26 -31 78 -31 104 0 17 22 18 53 18 542 0 506 -1 520 -20 539 -11 11 -33 20 -50 20 -17 0 -39 -9 -50 -20z"/>
 <path d="M390 1425 l0 -505 244 0 244 0 51 148 c98 279 114 322 121 322 3 0 42 -106 86 -235 l79 -235 238 0 237 0 0 505 0 505 -180 0 -180 0 0 -267 c0 -146 -3 -264 -6 -260 -3 3 -48 122 -99 264 l-93 258 -113 0 -112 0 -90 -257 c-50 -142 -94 -258 -99 -258 -4 0 -8 117 -8 260 l0 260 -160 0 -160 0 0 -505z"/>
 <path d="M1870 1425 l0 -505 430 0 430 0 0 130 0 130 -250 0 -251 0 3 78 3 77 163 3 162 2 0 80 0 80 -165 0 -165 0 0 75 0 75 250 0 250 0 0 140 0 140 -430 0 -430 0 0 -505z"/>
 <path d="M2890 1425 l0 -505 180 0 180 0 0 365 0 365 250 0 250 0 0 140 0 140 -430 0 -430 0 0 -505z"/>
 <path d="M3880 1425 l0 -505 430 0 430 0 0 130 0 130 -250 0 -251 0 3 78 3 77 163 3 162 2 0 80 0 80 -165 0 -165 0 0 75 0 75 250 0 250 0 0 140 0 140 -430 0 -430 0 0 -505z"/>
 <path d="M4900 1425 l0 -505 430 0 430 0 0 130 0 130 -250 0 -251 0 3 78 3 77 163 3 162 2 0 80 0 80 -165 0 -165 0 0 75 0 75 250 0 250 0 0 140 0 140 -430 0 -430 0 0 -505z"/>
 <path d="M8050 1607 l0 -97 1715 0 1715 0 0 -30 0 -30 -1715 0 -1715 0 0 -95 0 -95 73 5 c39 3 772 28 1627 55 855 28 1597 53 1649 56 l94 6 49 45 c26 25 48 51 48 59 0 17 -88 93 -114 99 -12 2 -721 27 -1576 55 -855 28 -1621 53 -1702 57 l-148 6 0 -96z"/>
 </g>

</svg>